<?xml version="1.0" standalone="no"?>
<!DOCTYPE svg PUBLIC "-//W3C//DTD SVG 20010904//EN"
 "http://www.w3.org/TR/2001/REC-SVG-20010904/DTD/svg10.dtd">
<svg version="1.0" xmlns="http://www.w3.org/2000/svg"
 width="631.000000pt" height="479.000000pt" viewBox="0 0 631.000000 479.000000"
 preserveAspectRatio="xMidYMid meet">

<g transform="translate(0.000000,479.000000) scale(0.100000,-0.100000)"
fill="#000000" stroke="none">
<path d="M3351 4764 c-26 -33 -26 -45 -1 -77 18 -23 20 -40 20 -206 l0 -181
-34 0 c-48 0 -97 -37 -126 -95 l-25 -50 -3 -1232 c-2 -1230 -2 -1233 18 -1233
20 0 20 4 20 1206 0 867 3 1218 11 1250 16 61 66 114 108 114 l31 0 0 -80 c0
-73 -2 -80 -20 -80 -18 0 -20 -7 -20 -60 0 -53 2 -60 20 -60 20 0 20 -7 20
-283 0 -271 -1 -283 -20 -295 -14 -8 -20 -23 -20 -47 0 -24 6 -39 20 -47 19
-12 20 -24 20 -164 l0 -152 -33 -6 c-41 -8 -82 -49 -95 -97 -6 -23 -8 -252 -4
-618 5 -559 6 -581 24 -581 18 0 18 19 18 558 0 306 0 576 0 600 0 35 6 50 29
73 28 28 33 29 125 29 l96 0 0 -74 0 -73 -56 -6 c-62 -6 -95 -24 -121 -64 -17
-25 -18 -66 -18 -532 0 -474 1 -506 18 -509 16 -3 17 20 17 385 0 228 4 403
10 424 19 67 34 74 196 77 l144 3 0 -30 0 -31 -85 0 c-79 0 -87 -2 -117 -29
-27 -24 -32 -36 -36 -89 -4 -50 -8 -63 -24 -68 -11 -3 -28 -25 -39 -47 -17
-38 -19 -69 -19 -319 0 -271 0 -278 20 -278 20 0 20 7 20 269 0 256 7 331 31
331 5 0 9 -128 9 -300 0 -293 0 -300 20 -300 20 0 20 7 20 310 l0 310 86 0
c84 0 87 1 119 33 26 26 35 46 41 85 l7 52 48 0 c76 0 102 18 123 83 5 15 23
17 186 17 l180 0 0 -85 c0 -95 15 -143 51 -169 21 -14 74 -16 475 -16 438 0
451 -1 469 -20 37 -41 105 -14 105 42 0 52 -69 77 -105 38 -18 -19 -31 -20
-465 -20 -530 0 -483 -13 -488 136 l-4 94 534 0 c522 0 535 0 553 -20 22 -24
67 -26 89 -4 24 23 20 70 -6 88 -30 21 -54 20 -78 -4 -20 -20 -32 -20 -762
-18 -409 0 -705 4 -658 8 47 3 95 11 107 18 30 16 53 51 53 79 l0 23 520 0
c513 0 520 0 520 -20 0 -18 7 -20 60 -20 l60 0 0 65 0 65 -60 0 c-53 0 -60 -2
-60 -20 0 -20 -7 -20 -520 -20 l-521 0 3 73 3 72 566 3 c555 2 566 2 584 -18
24 -27 80 -27 95 -1 17 32 12 69 -12 85 -30 21 -54 20 -78 -4 -20 -20 -33 -20
-590 -20 l-570 0 0 55 c0 71 21 122 55 135 16 6 193 10 449 10 410 0 423 -1
441 -20 24 -27 81 -27 95 -1 17 32 12 69 -12 85 -30 21 -54 20 -78 -4 -19 -19
-33 -20 -450 -20 -360 0 -437 -2 -467 -15 l-35 -15 4 89 c2 53 9 96 17 105 12
14 67 16 497 16 477 0 484 0 484 -20 0 -18 7 -20 60 -20 l60 0 0 60 0 60 -60
0 c-53 0 -60 -2 -60 -20 0 -20 -7 -20 -488 -20 -543 0 -522 3 -542 -68 -5 -20
-10 -117 -10 -214 l0 -178 -100 0 -101 0 3 273 c2 214 6 278 17 290 12 15 65
17 568 17 540 0 556 -1 580 -20 32 -25 44 -25 77 1 33 26 33 53 1 84 -31 32
-50 31 -81 0 l-25 -25 -497 0 -497 0 3 150 3 150 400 0 c392 0 399 0 399 -20
0 -18 7 -20 60 -20 l60 0 0 60 0 60 -60 0 c-53 0 -60 -2 -60 -20 0 -20 -7 -20
-400 -20 l-400 0 0 155 0 155 145 0 c138 0 145 -1 145 -20 0 -18 7 -20 60 -20
l60 0 0 60 0 60 -60 0 c-53 0 -60 -2 -60 -20 0 -19 -7 -20 -146 -20 l-145 0
20 26 c27 34 26 47 -3 81 -21 24 -27 26 -52 18 -16 -6 -35 -22 -43 -37 -14
-25 -14 -29 7 -57 l23 -31 -237 0 -236 0 4 111 c3 107 4 112 31 135 27 23 35
24 168 24 126 0 143 -2 168 -21 26 -19 32 -20 57 -7 23 10 30 21 32 50 3 30
-1 40 -22 53 -31 21 -71 13 -86 -15 -10 -19 -21 -20 -153 -20 -154 0 -176 -6
-211 -53 -18 -24 -22 -46 -24 -143 l-4 -114 -54 0 -54 0 0 181 c0 166 2 183
20 206 11 14 20 31 20 38 0 24 -41 65 -65 65 -14 0 -32 -11 -44 -26z m179
-1139 l0 -635 -55 0 -55 0 0 153 c1 118 4 156 15 171 19 25 19 60 0 76 -13 11
-15 57 -15 301 0 282 0 289 20 289 18 0 20 7 20 60 0 53 -2 60 -20 60 -18 0
-20 7 -20 80 l0 80 55 0 55 0 0 -635z m510 611 c0 -24 -1 -24 -135 -28 -116
-3 -138 -6 -162 -24 -54 -41 -68 -70 -72 -155 -2 -52 -7 -79 -15 -79 -6 0 -28
-9 -49 -19 l-37 -19 0 174 0 174 235 0 235 0 0 -24z m0 -181 l0 -105 -166 0
-166 0 4 76 c3 71 6 78 36 105 32 29 33 29 162 29 l130 0 0 -105z m-370 -605
l0 -460 -50 0 -50 0 0 413 c0 372 2 415 18 447 15 30 51 59 75 60 4 0 7 -207
7 -460z m372 310 l3 -150 -46 0 c-36 0 -51 -5 -70 -26 l-24 -26 -3 -284 -3
-284 -95 0 -94 0 0 460 0 460 164 0 165 0 3 -150z m-142 -885 l0 -75 -165 0
-165 0 0 75 0 75 165 0 165 0 0 -75z m240 0 l0 -75 -100 0 -100 0 0 68 c0 38
3 72 7 75 3 4 48 7 100 7 l93 0 0 -75z m-240 -160 c0 -33 -2 -35 -32 -35 -51
0 -107 -19 -121 -41 -11 -17 -24 -19 -155 -19 -105 0 -152 -4 -179 -15 -20 -8
-38 -13 -41 -11 -11 12 11 115 29 135 19 20 28 21 259 21 l240 0 0 -35z m240
18 c0 -9 -7 -25 -17 -35 -13 -15 -31 -18 -100 -18 l-83 0 0 35 0 35 100 0 c87
0 100 -2 100 -17z m-262 -110 c-15 -2 -42 -2 -60 0 -18 2 -6 4 27 4 33 0 48
-2 33 -4z m22 -57 c0 -29 -30 -46 -81 -46 -48 0 -49 1 -49 30 l0 30 65 0 c50
0 65 -3 65 -14z m-180 -128 c0 -29 -7 -49 -22 -65 -19 -20 -31 -23 -100 -23
l-78 0 0 43 c0 70 23 87 120 87 l80 0 0 -42z"/>
<path d="M2850 4699 c0 -52 3 -62 20 -66 19 -5 20 -14 20 -164 l0 -159 -54 0
-54 0 -4 103 c-4 112 -16 147 -61 181 -25 19 -45 21 -174 24 -126 3 -147 6
-164 23 -24 24 -50 24 -79 1 -26 -21 -30 -66 -7 -89 22 -22 64 -19 91 6 20 19
33 21 137 20 192 -1 219 -23 219 -181 l0 -88 -237 0 c-202 0 -234 2 -218 14
11 8 18 26 18 46 0 37 -23 60 -60 60 -28 0 -63 -33 -63 -60 0 -11 9 -29 20
-40 l20 -20 -145 0 c-138 0 -145 1 -145 20 0 18 -7 20 -60 20 l-60 0 0 -65 0
-65 60 0 c57 0 60 1 60 25 l0 25 145 0 145 0 0 -160 0 -160 -400 0 c-393 0
-400 0 -400 20 0 18 -7 20 -60 20 l-60 0 0 -60 0 -60 60 0 c53 0 60 2 60 20 0
20 7 20 400 20 l400 0 0 -145 0 -145 -498 0 c-486 0 -499 1 -517 20 -23 26
-59 26 -85 0 -24 -24 -25 -48 -4 -78 18 -26 81 -31 90 -7 5 13 79 15 574 15
444 0 571 -3 577 -12 4 -7 9 -138 11 -290 l3 -278 -100 0 -101 0 0 185 c0 197
-8 243 -48 264 -14 8 -179 11 -511 11 l-490 0 -3 23 c-3 20 -9 22 -66 25 l-62
3 0 -66 0 -65 65 0 c58 0 65 2 65 20 0 20 7 20 489 20 432 0 490 -2 502 -16 7
-9 15 -52 17 -101 l5 -86 -24 9 c-13 5 -223 10 -465 11 -425 3 -442 4 -459 23
-37 41 -105 14 -105 -42 0 -52 76 -80 102 -38 13 20 24 20 450 20 l437 0 27
-23 c24 -21 27 -32 32 -100 l5 -77 -570 0 c-557 0 -570 0 -588 20 -37 41 -105
14 -105 -42 0 -52 76 -80 102 -38 13 20 24 20 585 20 l573 0 0 -75 0 -75 -520
0 -520 0 0 25 c0 24 -3 25 -60 25 l-60 0 0 -65 0 -65 59 0 c50 0 59 3 64 20 5
20 12 20 519 18 l513 -3 3 -27 c2 -16 18 -40 38 -58 32 -28 40 -30 114 -30 43
0 82 -4 85 -10 4 -7 -243 -10 -733 -10 -726 0 -739 0 -757 20 -23 25 -67 26
-88 2 -53 -58 28 -137 83 -82 20 20 33 20 555 20 l535 0 0 -74 c0 -89 -14
-134 -47 -147 -14 -5 -215 -9 -457 -9 -420 0 -433 1 -451 20 -24 27 -81 27
-95 1 -17 -32 -12 -69 12 -85 30 -21 54 -20 78 4 19 19 33 20 462 20 402 0
446 2 478 18 45 22 59 62 59 170 l1 82 185 0 185 0 0 -23 c0 -41 43 -70 109
-75 l59 -4 6 -49 c5 -34 16 -60 34 -80 27 -30 33 -32 120 -37 l92 -5 0 -303
c0 -297 0 -304 20 -304 19 0 20 8 22 303 3 296 3 301 21 265 15 -33 17 -71 17
-303 0 -258 1 -265 20 -265 20 0 20 7 20 268 0 154 -5 283 -11 305 -6 21 -22
46 -39 59 -25 18 -30 29 -30 65 0 50 -21 97 -49 113 -11 5 -58 10 -105 10
l-86 0 0 30 0 30 135 0 c74 0 145 -5 158 -11 52 -23 52 -24 55 -461 3 -400 3
-408 23 -408 19 0 20 6 17 503 -3 463 -4 505 -21 535 -22 40 -69 62 -132 62
l-45 0 0 75 0 75 94 0 c111 0 122 -3 142 -42 13 -25 15 -112 14 -618 0 -585 0
-590 20 -590 20 0 20 6 23 468 3 693 3 703 -12 745 -14 41 -60 77 -98 77 -23
0 -23 2 -23 130 0 123 1 130 20 130 18 0 20 7 20 60 0 53 -2 60 -20 60 -20 0
-20 7 -20 450 0 406 2 450 16 450 35 0 82 -33 105 -73 l24 -42 3 -1227 c2
-1216 3 -1228 22 -1228 20 0 20 11 20 1400 0 1387 0 1400 20 1420 11 11 20 31
20 45 0 30 -32 65 -60 65 -28 0 -60 -35 -60 -65 0 -14 9 -34 20 -45 18 -18 20
-33 20 -151 l0 -131 -35 31 c-21 18 -52 33 -75 37 l-40 7 0 157 c0 149 1 158
20 163 17 4 20 14 20 66 l0 61 -65 0 -65 0 0 -61z m-110 -604 c0 -96 -3 -175
-7 -175 -5 0 -17 7 -27 15 -11 8 -30 15 -43 15 -22 0 -23 4 -23 68 -1 94 -26
146 -82 172 -35 16 -66 20 -170 20 -127 0 -128 0 -128 23 0 13 3 27 7 30 3 4
111 7 240 7 l233 0 0 -175z m150 -275 c0 -443 0 -450 -20 -450 -18 0 -20 -7
-20 -60 0 -53 2 -60 20 -60 19 0 20 -7 20 -130 l0 -130 -55 0 -55 0 0 640 0
640 55 0 55 0 0 -450z m-356 336 c44 -18 66 -67 66 -145 l0 -61 -170 0 -170 0
0 103 c0 57 3 107 7 110 13 13 232 7 267 -7z m66 -336 c0 -77 -3 -93 -20 -110
-11 -11 -20 -31 -20 -45 0 -14 9 -34 20 -45 19 -19 20 -33 20 -325 l0 -305
-95 0 -95 0 0 270 c0 313 -4 332 -67 349 -21 6 -48 11 -60 11 -23 0 -23 1 -23
145 l0 145 170 0 170 0 0 -90z m83 79 c52 -24 52 -22 55 -481 l3 -428 -51 0
-50 0 0 305 c0 292 1 306 20 325 11 11 20 31 20 45 0 14 -9 33 -20 42 -17 15
-20 30 -20 110 0 52 4 93 10 93 5 0 20 -5 33 -11z m-313 -1024 l0 -75 -100 0
-100 0 0 75 0 75 100 0 100 0 0 -75z m370 0 l0 -75 -165 0 -165 0 0 75 0 75
165 0 165 0 0 -75z m-372 -157 l3 -38 -80 0 c-87 0 -121 17 -121 60 0 20 5 21
98 18 l97 -3 3 -37z m542 14 c17 -21 38 -127 28 -138 -3 -2 -18 2 -34 11 -22
11 -64 15 -176 15 l-146 0 -30 30 c-27 26 -38 30 -86 30 l-56 0 0 41 0 40 241
-3 c237 -3 241 -3 259 -26z m-400 -102 c11 -7 -2 -10 -42 -10 -32 0 -58 4 -58
10 0 13 80 13 100 0z m30 -80 c0 -29 -2 -30 -43 -30 -45 0 -87 22 -87 46 0 11
15 14 65 14 l65 0 0 -30z m234 -92 c9 -12 16 -41 16 -63 l0 -40 -82 3 c-100 4
-118 16 -118 79 l0 43 84 0 c76 0 86 -2 100 -22z"/>
<path d="M3563 1359 c-62 -15 -161 -86 -200 -143 -117 -171 -66 -419 108 -531
102 -66 253 -72 366 -14 l64 32 39 -38 40 -39 27 27 28 27 -41 41 -41 41 36
70 c35 68 36 75 36 177 0 102 -1 109 -34 169 -65 119 -167 182 -304 188 -45 2
-101 -1 -124 -7z m207 -100 c102 -46 160 -137 160 -252 0 -64 -30 -167 -49
-167 -4 0 -24 18 -46 40 l-39 40 -27 -33 -27 -32 39 -41 c45 -46 43 -53 -31
-79 -166 -59 -334 59 -348 244 -9 126 48 228 153 277 65 31 152 32 215 3z"/>
<path d="M1473 1346 c-55 -18 -133 -76 -166 -123 -42 -61 -59 -112 -64 -194
-17 -238 155 -413 385 -396 110 8 246 79 223 115 -6 10 -19 6 -56 -17 -75 -48
-137 -64 -219 -59 -123 8 -210 70 -265 188 -22 46 -26 69 -26 141 0 79 3 92
35 155 65 126 190 190 328 165 37 -7 92 -25 121 -42 42 -22 57 -26 63 -17 13
22 10 26 -59 60 -60 29 -78 33 -163 35 -59 2 -111 -3 -137 -11z"/>
<path d="M2790 1000 l0 -360 215 0 215 0 0 45 0 45 -170 0 -170 0 0 115 0 115
130 0 130 0 0 40 0 39 -127 3 -128 3 0 115 0 115 158 3 157 3 0 39 0 40 -205
0 -205 0 0 -360z"/>
<path d="M4162 1088 c3 -258 4 -275 25 -314 31 -59 93 -110 154 -128 150 -45
300 9 355 128 23 50 24 58 24 319 l0 267 -45 0 -44 0 -3 -257 c-3 -239 -5
-261 -24 -298 -57 -108 -242 -115 -318 -12 -20 27 -21 43 -24 298 l-3 269 -50
0 -50 0 3 -272z"/>
<path d="M4910 1000 l0 -360 50 0 50 0 0 360 0 360 -50 0 -50 0 0 -360z"/>
<path d="M5120 1320 l0 -39 123 -3 122 -3 3 -317 2 -318 45 0 45 0 2 318 3
317 123 3 122 3 0 39 0 40 -295 0 -295 0 0 -40z"/>
<path d="M5733 1353 c2 -4 56 -99 121 -209 l116 -201 0 -152 0 -151 50 0 50 0
0 156 0 155 110 189 c61 104 113 196 116 204 5 13 -3 16 -47 16 l-54 0 -75
-136 c-41 -75 -79 -147 -83 -160 -5 -13 -12 -24 -15 -24 -4 1 -46 72 -93 158
l-87 157 -57 3 c-31 2 -55 -1 -52 -5z"/>
<path d="M10 1335 c0 -12 24 -15 133 -17 l132 -3 3 -337 c2 -290 4 -338 17
-338 13 0 15 48 17 338 l3 337 132 3 c109 2 133 5 133 17 0 13 -41 15 -285 15
-244 0 -285 -2 -285 -15z"/>
<path d="M700 995 l0 -355 205 0 c198 0 205 1 205 20 0 19 -7 20 -185 20
l-185 0 0 150 0 150 145 0 c138 0 145 1 145 20 0 19 -7 20 -145 20 l-146 0 3
148 3 147 173 3 c144 2 172 5 172 17 0 13 -30 15 -195 15 l-195 0 0 -355z"/>
<path d="M2040 995 c0 -348 0 -355 20 -355 19 0 20 7 20 170 l0 170 225 0 225
0 0 -170 c0 -163 1 -170 20 -170 20 0 20 7 20 355 0 348 0 355 -20 355 -19 0
-20 -7 -20 -165 l0 -165 -225 0 -225 0 0 165 c0 158 -1 165 -20 165 -20 0 -20
-7 -20 -355z"/>
<path d="M635 415 c-73 -26 -135 -114 -135 -193 0 -46 22 -110 51 -144 39 -48
89 -70 159 -70 82 0 171 45 143 73 -8 8 -20 4 -42 -12 -46 -34 -133 -37 -185
-7 -110 64 -113 234 -7 305 44 30 126 31 181 3 46 -23 67 -8 31 21 -47 38
-128 48 -196 24z"/>
<path d="M1126 416 c-47 -18 -104 -70 -122 -113 -22 -50 -18 -132 9 -183 78
-153 298 -150 372 6 23 50 20 142 -8 195 -44 83 -162 128 -251 95z m154 -47
c64 -36 100 -124 80 -198 -54 -200 -329 -158 -330 50 0 65 24 109 79 146 45
30 119 31 171 2z"/>
<path d="M3256 420 c-43 -13 -90 -49 -117 -88 -35 -52 -38 -151 -7 -211 78
-150 281 -152 365 -5 32 55 31 145 0 205 -42 78 -157 126 -241 99z m133 -45
c71 -36 110 -123 90 -197 -48 -183 -286 -183 -327 0 -25 110 52 212 160 212
27 0 62 -7 77 -15z"/>
<path d="M1560 215 l0 -205 115 0 c96 0 115 3 115 15 0 12 -17 15 -95 15 l-95
0 0 190 c0 183 -1 190 -20 190 -19 0 -20 -7 -20 -205z"/>
<path d="M1920 215 l0 -205 115 0 c96 0 115 3 115 15 0 12 -17 15 -95 15 l-95
0 0 190 c0 183 -1 190 -20 190 -19 0 -20 -7 -20 -205z"/>
<path d="M2312 223 c-40 -109 -72 -201 -72 -205 0 -5 8 -8 18 -8 13 0 23 16
38 63 l20 62 88 0 88 0 23 -60 c16 -44 27 -61 43 -63 18 -3 14 13 -48 181 -37
101 -71 193 -74 205 -5 14 -16 22 -29 22 -20 0 -31 -23 -95 -197z m130 55 c15
-45 28 -87 28 -95 0 -9 -17 -13 -65 -13 -45 0 -65 4 -65 12 0 21 63 189 68
183 3 -3 18 -42 34 -87z"/>
<path d="M2710 214 l0 -206 101 4 c99 3 101 3 130 36 41 46 41 111 -1 153 -28
29 -29 30 -11 48 44 44 29 135 -25 160 -14 6 -63 11 -109 11 l-85 0 0 -206z
m185 151 c32 -31 32 -69 0 -101 -22 -22 -32 -25 -88 -22 l-62 3 -3 59 c-4 84
-2 86 68 86 51 0 65 -4 85 -25z m11 -179 c36 -30 39 -86 6 -119 -19 -19 -33
-22 -95 -22 l-72 0 -3 83 -3 82 70 0 c59 0 74 -4 97 -24z"/>
<path d="M3680 215 c0 -173 2 -205 15 -205 11 0 15 19 17 88 l3 87 52 3 51 3
49 -90 c39 -73 52 -91 71 -91 22 0 21 3 -19 77 -23 43 -47 84 -53 92 -8 11 -7
15 3 19 57 19 84 99 55 159 -26 51 -54 63 -156 63 l-88 0 0 -205z m173 164
c50 -23 62 -95 22 -134 -21 -22 -33 -25 -95 -25 l-70 0 0 78 c0 43 3 82 7 85
11 11 110 8 136 -4z"/>
<path d="M4132 223 c-40 -109 -72 -201 -72 -205 0 -5 9 -8 20 -8 11 0 20 4 20
10 0 5 9 34 21 65 l21 56 85 -3 85 -3 23 -60 c16 -44 27 -61 43 -63 18 -3 13
16 -54 198 -41 111 -74 204 -74 206 0 2 -10 4 -23 4 -20 0 -30 -20 -95 -197z
m130 54 c16 -45 30 -86 31 -92 1 -6 -27 -11 -65 -13 -50 -2 -68 0 -68 10 0 21
62 189 68 183 3 -3 18 -42 34 -88z"/>
<path d="M4470 405 c0 -12 15 -15 75 -15 l75 0 0 -190 c0 -183 1 -190 20 -190
19 0 20 7 20 190 l0 190 75 0 c60 0 75 3 75 15 0 13 -26 15 -170 15 -144 0
-170 -2 -170 -15z"/>
<path d="M4930 215 c0 -198 1 -205 20 -205 19 0 20 7 20 205 0 198 -1 205 -20
205 -19 0 -20 -7 -20 -205z"/>
<path d="M5131 338 c17 -46 51 -138 76 -206 64 -173 66 -172 159 78 41 107 74
198 74 203 0 4 -8 7 -19 7 -15 0 -31 -35 -84 -182 -36 -101 -68 -176 -70 -168
-88 254 -126 345 -146 348 -21 3 -20 2 10 -80z"/>
<path d="M5580 215 l0 -205 115 0 c94 0 115 3 115 15 0 11 -20 15 -97 17 l-98
3 -3 78 -3 77 81 0 c63 0 80 3 80 15 0 11 -18 15 -77 17 l-78 3 -3 78 -3 77
96 0 c78 0 95 3 95 15 0 12 -19 15 -110 15 l-110 0 0 -205z"/>
</g>
</svg>
